<?xml version="1.0" encoding="UTF-8"?>
<svg id="Layer_1" data-name="Layer 1" xmlns="http://www.w3.org/2000/svg" viewBox="0 0 800 166">
  <g>
    <path d="M260.9,90.81v-14.64c0-13.66,3.5-24.4,10.51-32.24,7-7.84,16.38-11.75,28.14-11.75s21.12,3.9,28.1,11.69c6.98,7.79,10.47,18.56,10.47,32.31v14.64c0,13.66-3.51,24.24-10.54,31.75-7.03,7.51-16.45,11.26-28.27,11.26s-21.23-3.75-28.1-11.26c-6.87-7.51-10.31-18.09-10.31-31.75ZM272.26,76.17v14.64c0,5.43.7,10.27,2.1,14.51,1.4,4.25,3.34,7.67,5.81,10.28,2.47,2.6,5.32,4.56,8.54,5.88,3.22,1.31,6.8,1.97,10.74,1.97s7.49-.66,10.77-1.97c3.28-1.31,6.18-3.27,8.7-5.88,2.52-2.6,4.45-6.03,5.81-10.28,1.36-4.25,2.04-9.08,2.04-14.51v-14.64c0-10.77-2.53-19.06-7.58-24.89-5.06-5.82-11.63-8.73-19.73-8.73s-14.54,2.89-19.6,8.67c-5.06,5.78-7.58,14.1-7.58,24.95Z"/>
    <path d="M367.81,133.82h-.07c-2.86,0-5.19-2.32-5.19-5.19V42.84c0-3.64,2.95-6.59,6.59-6.59h0c2.65,0,5.04,1.59,6.07,4.03l31.26,74.11h.39l31.05-74.05c1.04-2.48,3.46-4.09,6.15-4.09h0c3.68,0,6.66,2.98,6.66,6.66v85.72c0,2.86-2.32,5.19-5.19,5.19h0c-2.86,0-5.19-2.32-5.19-5.19l-.72-67.5-25.83,60.49c-1.22,2.86-4.03,4.72-7.14,4.72h0c-3.1,0-5.91-1.85-7.13-4.7l-26.02-60.5-.53,67.5c0,2.86-2.32,5.19-5.19,5.19Z"/>
    <path d="M479.65,41.44c0-2.86,2.32-5.19,5.19-5.19h29.81c9.19,0,16.61,2.76,22.26,8.27,5.65,5.52,8.47,12.78,8.47,21.8s-2.82,16.26-8.47,21.73c-5.65,5.47-13.07,8.21-22.26,8.21h-23.51v31.81c0,3.17-2.57,5.75-5.75,5.75h0c-3.17,0-5.75-2.57-5.75-5.75V41.44ZM491.14,46.49v39.53h15.3c3.02,0,5.69-.12,8.01-.36,2.32-.24,4.55-.61,6.7-1.12,2.14-.5,3.94-1.23,5.38-2.17,1.44-.94,2.74-2.14,3.87-3.61,1.14-1.47,1.96-3.23,2.46-5.29.5-2.06.76-4.44.76-7.16,0-6.3-1.69-11.18-5.06-14.64-3.37-3.46-8.14-5.19-14.31-5.19h-23.11Z"/>
    <path d="M560.49,133.82h0c-3.8,0-6.45-3.77-5.16-7.35l30.61-85.01c1.13-3.13,4.1-5.22,7.42-5.22h0c3.33,0,6.3,2.09,7.43,5.23l30.36,84.63c1.35,3.76-1.44,7.72-5.43,7.72h0c-2.48,0-4.68-1.58-5.47-3.93l-8.79-26.14h-36.9l-8.85,26.33c-.75,2.23-2.84,3.74-5.2,3.74ZM593.26,50.3h-.39l-15.04,44.19h30.47l-15.04-44.19Z"/>
    <path d="M659.53,133.82h0c-3.17,0-5.75-2.57-5.75-5.75V42.42c0-3.41,2.76-6.17,6.17-6.17h2.48c1.77,0,3.42.9,4.37,2.39l48.9,75.61V41.93c0-3.14,2.54-5.68,5.68-5.68h0c3.14,0,5.68,2.54,5.68,5.68v85.67c0,3.44-2.79,6.23-6.23,6.23h-2.29c-1.77,0-3.41-.9-4.37-2.39l-48.9-75.62v72.26c0,3.17-2.57,5.75-5.75,5.75Z"/>
    <path d="M760.66,133.82h0c-3.17,0-5.75-2.57-5.75-5.75V41.99c0-3.17,2.57-5.75,5.75-5.75h0c3.17,0,5.75,2.57,5.75,5.75v86.08c0,3.17-2.57,5.75-5.75,5.75Z"/>
    <path d="M178,76.17v14.31c0,11.03,2.39,19.28,7.16,24.75,4.77,5.47,11.36,8.21,19.76,8.21,7.53,0,13.4-1.98,17.6-5.94,3.09-2.91,5.05-6.31,5.86-10.18.54-2.56,2.83-4.36,5.45-4.36h0c3.56,0,6.23,3.36,5.31,6.8-.32,1.21-.73,2.43-1.23,3.64-1.42,3.5-3.5,6.83-6.24,9.98-2.74,3.15-6.47,5.68-11.2,7.58-4.73,1.9-10.11,2.86-16.15,2.86-11.64,0-20.84-3.71-27.58-11.13-6.74-7.42-10.11-18.09-10.11-32.01v-14.77c0-13.79,3.41-24.52,10.24-32.21,6.83-7.68,16.02-11.52,27.58-11.52,5.78,0,10.99.95,15.63,2.86,4.64,1.9,8.37,4.45,11.2,7.65,2.82,3.2,4.99,6.69,6.5,10.47.64,1.6,1.14,3.22,1.51,4.86.79,3.49-1.92,6.79-5.5,6.79h0c-2.59,0-4.89-1.78-5.41-4.32-.83-4.09-2.88-7.81-6.14-11.17-4.38-4.51-10.31-6.76-17.79-6.76-8.01,0-14.42,2.89-19.24,8.67-4.82,5.78-7.22,14.1-7.22,24.95Z"/>
  </g>
  <g>
    <path d="M132.39,46.39c-1.9-4.73-4.43-8.46-7.58-11.2-3.15-2.74-6.48-4.82-9.98-6.24-1.22-.49-2.43-.9-3.64-1.23-3.44-.92-6.8,1.75-6.8,5.31h0c0,2.61,1.8,4.91,4.36,5.45,3.88.82,7.27,2.77,10.18,5.86,3.96,4.2,5.94,10.07,5.94,17.6,0,8.4-2.74,14.99-8.21,19.76-5.47,4.77-13.72,7.16-24.75,7.16h-14.31c-10.86,0-19.17-2.41-24.95-7.22-5.78-4.82-8.67-11.23-8.67-19.24,0-7.49,2.25-13.42,6.76-17.79,3.36-3.26,7.08-5.31,11.17-6.14,2.54-.52,4.32-2.81,4.32-5.41,0-3.58-3.31-6.28-6.79-5.5-1.64.37-3.26.87-4.86,1.51-3.79,1.51-7.28,3.68-10.47,6.5-3.2,2.82-5.75,6.56-7.65,11.2-1.9,4.64-2.86,9.85-2.86,15.63,0,11.56,5.19,59.07,12.87,65.9,7.68,6.83,18.42,10.24,32.21,10.24h14.77c13.92,0,24.59-3.37,32.01-10.11,7.42-6.74,9.78-54.26,9.78-65.9,0-6.04-.95-11.43-2.86-16.15Z"/>
    <circle cx="84.42" cy="58.68" r="19.84"/>
  </g>
</svg>